<svg xmlns="http://www.w3.org/2000/svg" xmlns:xlink="http://www.w3.org/1999/xlink" width="778" height="645" viewBox="0 0 778 645">
  <defs>
    <filter id="Rectangle_34" x="0" y="387" width="778" height="258" filterUnits="userSpaceOnUse">
      <feOffset dy="10" input="SourceAlpha"/>
      <feGaussianBlur stdDeviation="30" result="blur"/>
      <feFlood flood-opacity="0.161"/>
      <feComposite operator="in" in2="blur"/>
      <feComposite in="SourceGraphic"/>
    </filter>
    <clipPath id="clip-path">
      <ellipse id="Ellipse_6" data-name="Ellipse 6" cx="213.5" cy="214" rx="213.5" ry="214" transform="translate(0.263 -0.308)" fill="#0193d7"/>
    </clipPath>
  </defs>
  <g id="graph" transform="translate(-1082.354 -2030.692)">
    <g id="show-result" transform="translate(1172 2497.945)">
      <g transform="matrix(1, 0, 0, 1, -89.65, -467.25)" filter="url(#Rectangle_34)">
        <rect id="Rectangle_34-2" data-name="Rectangle 34" width="598" height="78" rx="4" transform="translate(90 467)" fill="#e3f3fa"/>
      </g>
      <g id="Group_105" data-name="Group 105" transform="translate(1)">
        <line id="Line_1" data-name="Line 1" y2="77.439" transform="translate(149.677)" fill="none" stroke="#d7e6ed" stroke-width="1"/>
        <line id="Line_2" data-name="Line 2" y2="77.439" transform="translate(299.931)" fill="none" stroke="#d7e6ed" stroke-width="1"/>
        <line id="Line_3" data-name="Line 3" y2="78" transform="translate(449.354 -0.253)" fill="none" stroke="#d7e6ed" stroke-width="1"/>
        <text id="Purchase_price" data-name="Purchase price" transform="translate(27.354 60.747)" fill="#393939" font-size="11" font-family="Graphik-Regular, Graphik" letter-spacing="0.04em"><tspan x="0" y="0">PURCHASE PRICE</tspan></text>
        <text id="_50_" data-name="50%" transform="translate(49.354 37.747)" fill="#845ec2" font-size="23" font-family="Graphik-Semibold, Graphik" font-weight="600" letter-spacing="0.04em"><tspan x="0" y="0">50%</tspan></text>
        <text id="Down_Payment" data-name="Down Payment" transform="translate(181.354 60.747)" fill="#393939" font-size="11" font-family="Graphik-Regular, Graphik" letter-spacing="0.04em"><tspan x="0" y="0">DOWN PAYMENT</tspan></text>
        <text id="_100_" data-name="100%" transform="translate(193.354 37.747)" fill="#a6f0c6" font-size="23" font-family="Graphik-Semibold, Graphik" font-weight="600" letter-spacing="0.04em"><tspan x="0" y="0">100%</tspan></text>
        <text id="Interest_Rate" data-name="Interest Rate" transform="translate(335.354 60.747)" fill="#393939" font-size="11" font-family="Graphik-Regular, Graphik" letter-spacing="0.04em"><tspan x="0" y="0">INTEREST RATE</tspan></text>
        <text id="_60_" data-name="60%" transform="translate(350.354 37.747)" fill="#ff9292" font-size="23" font-family="Graphik-Semibold, Graphik" font-weight="600" letter-spacing="0.04em"><tspan x="0" y="0">60%</tspan></text>
        <text id="TENURE_YEARS_" data-name="TENURE (YEARS)" transform="translate(479.354 60.747)" fill="#393939" font-size="11" font-family="Graphik-Regular, Graphik" letter-spacing="0.04em"><tspan x="0" y="0">TENURE (YEARS)</tspan></text>
        <text id="_18_" data-name="18%" transform="translate(502.354 37.747)" fill="#1687a7" font-size="23" font-family="Graphik-Semibold, Graphik" font-weight="600" letter-spacing="0.04em"><tspan x="0" y="0">18%</tspan></text>
      </g>
    </g>
    <g id="Group_104" data-name="Group 104" transform="translate(1180.091 2031)">
      <g id="graph-clr-box" transform="translate(446.141 150.073)">
        <g id="clr-box-four" transform="translate(0 138.697)">
          <rect id="Rectangle_33" data-name="Rectangle 33" width="10" height="10" rx="5" transform="translate(5.122 -28.078)" fill="#7d61c3"/>
          <text id="Tenure_Years_2" data-name="Tenure (Years)" transform="translate(25.122 -18.078)" fill="#393939" font-size="16" font-family="Graphik-Medium, Graphik" font-weight="500" letter-spacing="0.04em"><tspan x="0" y="0">Tenure (Years)</tspan></text>
        </g>
        <g id="clr-box-three" transform="translate(-1 92.464)">
          <rect id="Rectangle_32" data-name="Rectangle 32" width="10" height="10" rx="5" transform="translate(6.122 -15.846)" fill="#1588aa"/>
          <text id="Interest_Rate-2" data-name="Interest Rate" transform="translate(26.122 -5.845)" fill="#393939" font-size="16" font-family="Graphik-Medium, Graphik" font-weight="500" letter-spacing="0.04em"><tspan x="0" y="0">Interest Rate</tspan></text>
        </g>
        <g id="clr-box-two" transform="translate(0 46.232)">
          <rect id="Rectangle_31" data-name="Rectangle 31" width="10" height="10" rx="5" transform="translate(5.122 -3.613)" fill="#f29396"/>
          <text id="Down_Payment-2" data-name="Down Payment" transform="translate(25.122 6.387)" fill="#393939" font-size="16" font-family="Graphik-Medium, Graphik" font-weight="500" letter-spacing="0.04em"><tspan x="0" y="0">Down Payment</tspan></text>
        </g>
        <g id="clr-box-one" transform="translate(0 0)">
          <rect id="Rectangle_30" data-name="Rectangle 30" width="10" height="10" rx="5" transform="translate(5.122 7.619)" fill="#9eecc7"/>
          <text id="Purchase_price-2" data-name="Purchase price" transform="translate(25.122 17.619)" fill="#393939" font-size="16" font-family="Graphik-Medium, Graphik" font-weight="500" letter-spacing="0.04em"><tspan x="0" y="0">Purchase Price</tspan></text>
        </g>
      </g>
      <g id="graph-circle">
        <g id="Mask_Group_1" data-name="Mask Group 1" clip-path="url(#clip-path)">
          <ellipse id="Ellipse_7" data-name="Ellipse 7" cx="213.5" cy="214" rx="213.5" ry="214" transform="translate(0.263 -0.308)" fill="#a6f0c6"/>
          <path id="Path_191" data-name="Path 191" d="M1464.7,2046.481l.132,215.538-214.455-.175.467-12.1.985-13.614,2.985-19.548,5.581-20.742,9.795-24.639,11.731-21.659,14.371-20.942,20.154-22.566,20.415-16.764,18.533-12.545,25.37-13.283,22.275-7.534,19.508-5.537,17.891-2.946,15.436-.942Z" transform="translate(-1252.556 -2048.196)" fill="#ff9292"/>
          <path id="Path_192" data-name="Path 192" d="M215.414,0l.133,216.635L0,216.459.469,204.3l.99-13.683,3-19.647,5.609-20.848,9.844-24.764L31.7,103.584,46.147,82.535,66.4,59.855,86.923,43.005,105.55,30.4l25.5-13.351,22.388-7.572,19.607-5.566L191.026.947,206.541,0Z" transform="translate(427.826 430.459) rotate(180)" fill="#845ec2"/>
          <path id="Path_193" data-name="Path 193" d="M215.414,0l.133,216.635L0,216.459.469,204.3l.99-13.683,3-19.647,5.609-20.848,9.844-24.764L31.7,103.584,46.147,82.535,66.4,59.855,86.923,43.005,105.55,30.4l25.5-13.351,22.388-7.572,19.607-5.566L191.026.947,206.541,0Z" transform="translate(-3.375 429.594) rotate(-90)" fill="#1687a7"/>
        </g>
        <ellipse id="Ellipse_8" data-name="Ellipse 8" cx="113" cy="112.5" rx="113" ry="112.5" transform="translate(101.263 101.692)" fill="#f2fafd"/>
      </g>
    </g>
  </g>
</svg>
