<svg xmlns="http://www.w3.org/2000/svg" xmlns:xlink="http://www.w3.org/1999/xlink" width="187.022" height="187.022" viewBox="0 0 187.022 187.022">
  <defs>
    <clipPath id="clip-path">
      <path id="Path_1524" data-name="Path 1524" d="M93.511,0a93.47,93.47,0,0,1,92.838,80.125,100.226,100.226,0,0,1,.673,13.386A93.511,93.511,0,1,1,93.511,0Z" fill="#ffabba"/>
    </clipPath>
  </defs>
  <g id="graph-circle" transform="translate(-8.543 -9)">
    <g id="Mask_Group_3" data-name="Mask Group 3" transform="translate(8.543 9)" clip-path="url(#clip-path)">
      <path id="Path_1525" data-name="Path 1525" d="M93.511,0A93.511,93.511,0,1,1,0,93.511,93.511,93.511,0,0,1,93.511,0Z" fill="#f0a6a6"/>
      <path id="Path_191" data-name="Path 191" d="M1344.181,2046.481l.058,94.333-93.858-.077.2-5.3.431-5.958,1.307-8.555,2.443-9.078,4.287-10.784,5.134-9.479,6.289-9.165,8.821-9.876,8.935-7.337,8.111-5.491,11.1-5.813,9.749-3.3,8.538-2.423,7.83-1.29,6.756-.412Z" transform="translate(-1251.21 -2047.198)" fill="#739ced"/>
      <path id="Path_192" data-name="Path 192" d="M94.073,0l.058,94.813L7.123,130.29l-1.06-2.677-1.131-2.475-1.2-3.622-1.16-4.057s-.706-2.709-1.267-6.23-.927-7.865-.927-7.865l-.139-3.254L0,94.931V89.412l.433-5.989,1.313-8.6L4.2,65.7,8.51,54.862l5.16-9.528,6.322-9.212L28.857,26.2l8.98-7.374L45.99,13.3,57.15,7.46l9.8-3.314L75.53,1.71,83.4.414,90.189,0Z" transform="translate(187.159 188.429) rotate(180)" fill="#c4b0f9"/>
      <path id="Path_193" data-name="Path 193" d="M140.737,12.423,94.679,94.812,54.023,179.449A91.85,91.85,0,0,1,33.9,166.638c-9.37-7.769-19.4-19.658-24.567-31.61C8.8,133.793,8,132.626,7.416,131.2A103.506,103.506,0,0,1,.981,109.16C-.936,97.481.548,89.412.548,89.412l.433-5.989,1.313-8.6L4.749,65.7,9.058,54.862l5.16-9.528,6.322-9.212L29.405,26.2l8.98-7.374L46.538,13.3,57.7,7.46l9.8-3.314L76.078,1.71l7.87-1.3L90.737,0l7.738.675L110.353,1.71l5.893,1.222,7.347,1.837,4.362,1.837,6.582,2.526Z" transform="translate(-1.355 188.393) rotate(-90)" fill="#5eb3d1"/>
    </g>
    <ellipse id="Ellipse_8" data-name="Ellipse 8" cx="53.216" cy="51.507" rx="53.216" ry="51.507" transform="translate(49.192 50.901)" fill="#f2fafd"/>
  </g>
</svg>
