<svg xmlns="http://www.w3.org/2000/svg" xmlns:xlink="http://www.w3.org/1999/xlink" width="643.017" height="398.796" viewBox="0 0 643.017 398.796">
  <defs>
    <clipPath id="clip-path">
      <rect id="Rectangle_327" data-name="Rectangle 327" width="459.273" height="332.684" transform="translate(171.975 101.416)" fill="none"/>
    </clipPath>
  </defs>
  <g id="Group_855" data-name="Group 855" transform="translate(-55.126 -35.304)">
    <g id="Group_793" data-name="Group 793">
      <g id="Group_781" data-name="Group 781">
        <g id="Group_774" data-name="Group 774">
          <g id="Group_768" data-name="Group 768">
            <g id="Group_767" data-name="Group 767">
              <g id="Group_766" data-name="Group 766">
                <rect id="Rectangle_314" data-name="Rectangle 314" width="129.344" height="120.523" rx="5.991" transform="translate(566.865 148.413)" fill="#ededed"/>
                <rect id="Rectangle_315" data-name="Rectangle 315" width="129.344" height="120.523" rx="5.991" transform="translate(566.865 148.413)" fill="none" stroke="#ded8d5" stroke-miterlimit="10" stroke-width="1.968"/>
              </g>
            </g>
          </g>
          <g id="Group_773" data-name="Group 773">
            <g id="Group_771" data-name="Group 771">
              <g id="Group_770" data-name="Group 770">
                <g id="Group_769" data-name="Group 769">
                  <rect id="Rectangle_316" data-name="Rectangle 316" width="73.042" height="62.034" rx="6.022" transform="translate(668.25 237.584) rotate(180)" fill="#0071e3"/>
                </g>
              </g>
            </g>
            <g id="Group_772" data-name="Group 772">
              <path id="Path_1060" data-name="Path 1060" d="M648.391,216.882H614.683V194.276h33.708v22.606Z" fill="none" stroke="#fff" stroke-linecap="round" stroke-linejoin="round" stroke-width="1.647"/>
              <path id="Path_1061" data-name="Path 1061" d="M614.683,194.276l16.854,13.282,16.854-13.282" fill="none" stroke="#fff" stroke-linecap="round" stroke-linejoin="round" stroke-width="1.647"/>
            </g>
          </g>
        </g>
        <g id="Group_780" data-name="Group 780">
          <g id="Group_777" data-name="Group 777">
            <g id="Group_776" data-name="Group 776">
              <g id="Group_775" data-name="Group 775">
                <rect id="Rectangle_317" data-name="Rectangle 317" width="123.353" height="109.011" rx="5.713" transform="translate(56.11 250.814)" fill="#ededed"/>
                <rect id="Rectangle_318" data-name="Rectangle 318" width="123.353" height="109.011" rx="5.713" transform="translate(56.11 250.814)" fill="none" stroke="#ded8d5" stroke-miterlimit="10" stroke-width="1.968"/>
              </g>
            </g>
          </g>
          <g id="Group_779" data-name="Group 779">
            <rect id="Rectangle_319" data-name="Rectangle 319" width="71.328" height="69.339" rx="6.639" transform="translate(81.832 269.484)" fill="#d29c8b"/>
            <g id="Group_778" data-name="Group 778">
              <path id="Path_1062" data-name="Path 1062" d="M103.671,290.541a20.167,20.167,0,1,0,28.52,0A20.247,20.247,0,0,0,103.671,290.541Zm28.474,2.9h-6.427a40.89,40.89,0,0,0-2.5-6.056A18.217,18.217,0,0,1,132.145,293.445Zm-21.619,10.177a32.63,32.63,0,0,1,.955-7.819h12.9a32.579,32.579,0,0,1,.955,7.819Zm14.731,2.358a38.422,38.422,0,0,1-1.385,7.819H111.991a38.344,38.344,0,0,1-1.386-7.819Zm-7.326-19.372a18.318,18.318,0,0,1,2.849.221,37.055,37.055,0,0,1,2.924,6.616H112.158a37.055,37.055,0,0,1,2.924-6.616A18.328,18.328,0,0,1,117.931,286.608Zm-5.288.781a40.776,40.776,0,0,0-2.5,6.056h-6.427A18.2,18.2,0,0,1,112.643,287.389ZM102.115,295.8h7.361a35.088,35.088,0,0,0-1.031,7.819H99.776A18.1,18.1,0,0,1,102.115,295.8Zm0,18a18.08,18.08,0,0,1-2.339-7.819h8.705a37.993,37.993,0,0,0,1.228,7.819Zm1.6,2.358H110.4a48.927,48.927,0,0,0,2.486,6.13A18.2,18.2,0,0,1,103.718,316.157Zm14.213,6.838a18.369,18.369,0,0,1-2.383-.155,54.283,54.283,0,0,1-2.82-6.683h10.407a54.593,54.593,0,0,1-2.82,6.683A18.4,18.4,0,0,1,117.931,322.995Zm5.041-.708a48.859,48.859,0,0,0,2.485-6.13h6.688A18.2,18.2,0,0,1,122.972,322.287Zm10.775-8.488h-7.594a37.837,37.837,0,0,0,1.228-7.819h8.705A18.085,18.085,0,0,1,133.747,313.8Zm2.339-10.177h-8.669a35.088,35.088,0,0,0-1.031-7.819h7.361A18.1,18.1,0,0,1,136.086,303.622Z" fill="#f6fcfe"/>
            </g>
          </g>
        </g>
      </g>
      <g id="Group_792" data-name="Group 792">
        <path id="Path_1063" data-name="Path 1063" d="M167.079,97.432H65.68a3.793,3.793,0,0,1-3.793-3.793h0a3.793,3.793,0,0,1,3.793-3.793h101.4a3.793,3.793,0,0,1,3.793,3.793h0A3.793,3.793,0,0,1,167.079,97.432Z" fill="#393939"/>
        <path id="Path_1064" data-name="Path 1064" d="M694.35,345.116H645.135a3.793,3.793,0,0,1-3.793-3.793h0a3.793,3.793,0,0,1,3.793-3.793H694.35a3.793,3.793,0,0,1,3.793,3.793h0A3.793,3.793,0,0,1,694.35,345.116Z" fill="#f4f4f4"/>
        <rect id="Rectangle_320" data-name="Rectangle 320" width="11.736" height="11.368" rx="2.861" transform="translate(651.006 377.625)" fill="#0193d7"/>
        <rect id="Rectangle_321" data-name="Rectangle 321" width="11.736" height="11.368" rx="2.861" transform="translate(80.958 403.903)" fill="#393939"/>
        <g id="Group_784" data-name="Group 784">
          <g id="Group_783" data-name="Group 783">
            <rect id="Rectangle_322" data-name="Rectangle 322" width="106.107" height="30.46" rx="3.012" transform="translate(447.013 63.055)" fill="#878787"/>
            <g id="Group_782" data-name="Group 782">
              <line id="Line_7" data-name="Line 7" x2="71.178" transform="translate(461.466 73.908)" fill="none" stroke="#fff" stroke-miterlimit="10" stroke-width="1.18"/>
              <line id="Line_8" data-name="Line 8" x2="28.992" transform="translate(461.466 81.213)" fill="none" stroke="#fff" stroke-miterlimit="10" stroke-width="1.18"/>
            </g>
          </g>
          <path id="Path_1065" data-name="Path 1065" d="M458.571,90.068v11.871L473.5,90.068Z" fill="#878787"/>
        </g>
        <g id="Group_791" data-name="Group 791">
          <g id="Group_789" data-name="Group 789">
            <g id="Group_788" data-name="Group 788">
              <g id="Group_787" data-name="Group 787">
                <g id="Group_786" data-name="Group 786">
                  <g id="Group_785" data-name="Group 785">
                    <path id="Rectangle_323" data-name="Rectangle 323" d="M6.46,0H56.968a6.46,6.46,0,0,1,6.46,6.46v47.1a6.46,6.46,0,0,1-6.46,6.46H8.521A8.521,8.521,0,0,1,0,51.5V6.46A6.46,6.46,0,0,1,6.46,0Z" transform="translate(247.247 35.304)" fill="#0193d7"/>
                  </g>
                </g>
              </g>
            </g>
          </g>
          <g id="Group_790" data-name="Group 790">
            <path id="Path_1066" data-name="Path 1066" d="M293.763,69.754l-3.612-3.612a3.164,3.164,0,0,0-2.322-1.1,3.345,3.345,0,0,0-2.322,1.031l-2.063,2.064-.387-.193a5.946,5.946,0,0,1-.645-.323,22.237,22.237,0,0,1-5.353-4.9,11.71,11.71,0,0,1-1.677-2.645c.516-.451.967-.967,1.419-1.418l.58-.581a3.145,3.145,0,0,0,0-4.772L275.575,51.5a5.856,5.856,0,0,1-.58-.645l-1.226-1.226a3.343,3.343,0,0,0-2.321-1.031,3.2,3.2,0,0,0-2.322,1.031l-2.258,2.258a5.188,5.188,0,0,0-1.483,3.16,11.732,11.732,0,0,0,.839,4.9,26.377,26.377,0,0,0,5.03,8.449,31.353,31.353,0,0,0,10.319,8.062,17.129,17.129,0,0,0,5.8,1.741h.451a5.121,5.121,0,0,0,3.87-1.677l.064-.064a9.926,9.926,0,0,1,1.161-1.161l.839-.838A3.236,3.236,0,0,0,293.763,69.754Zm-1.484,3.353-.774.774c-.451.387-.838.839-1.29,1.29a3.065,3.065,0,0,1-2.321.968h-.323a13.583,13.583,0,0,1-5.03-1.548,29.357,29.357,0,0,1-9.61-7.546,27.973,27.973,0,0,1-4.708-7.8,7.991,7.991,0,0,1-.774-4,2.718,2.718,0,0,1,.9-1.87l2.193-2.193a1.353,1.353,0,0,1,.9-.451,1.229,1.229,0,0,1,.9.451l1.161,1.161a6.036,6.036,0,0,0,.645.645l1.806,1.806a1.51,1.51,0,0,1,.452.9,1.352,1.352,0,0,1-.452.9l-.58.58-1.613,1.613-.064.064a1.412,1.412,0,0,0-.387,1.612v.065a14.884,14.884,0,0,0,2.128,3.483,23.946,23.946,0,0,0,5.869,5.353,5.372,5.372,0,0,0,.839.451,6.038,6.038,0,0,1,.645.323l.064.064a1.481,1.481,0,0,0,1.806-.322l2.257-2.258a1.066,1.066,0,0,1,1.742,0l3.611,3.612A1.221,1.221,0,0,1,292.279,73.107Z" fill="#fff"/>
          </g>
        </g>
      </g>
    </g>
    <g id="Group_854" data-name="Group 854">
      <g id="Group_853" data-name="Group 853" clip-path="url(#clip-path)">
        <g id="Group_852" data-name="Group 852">
          <g id="Group_814" data-name="Group 814">
            <g id="Group_794" data-name="Group 794">
              <path id="Path_1067" data-name="Path 1067" d="M514.962,322.582l-36.5-4.86.285,3.624L447.537,325.5s-20.116,50.469-2.387,161.465h25.387l9.137-112.549h3.245l8.849,112.549h25.387C534.884,375.971,514.962,322.582,514.962,322.582Z" fill="#8e716c"/>
              <line id="Line_9" data-name="Line 9" x2="26.486" transform="translate(468.067 374.418)" fill="none" stroke="#282828" stroke-linecap="round" stroke-linejoin="round" stroke-width="1.233"/>
            </g>
            <g id="Group_803" data-name="Group 803">
              <g id="Group_800" data-name="Group 800">
                <g id="Group_796" data-name="Group 796">
                  <g id="Group_795" data-name="Group 795">
                    <path id="Path_1068" data-name="Path 1068" d="M536.279,269.341c-3.123-4.985-20.665-4.808-21.591-4.917-4.742-.556,3.041,37.18,12.906,70.166a11.075,11.075,0,0,0,14.927,7.042l.2-.083a11.09,11.09,0,0,0,6.576-12.271C544.6,304.387,539.891,275.1,536.279,269.341Z" fill="#ffb1a5"/>
                  </g>
                  <path id="Path_1069" data-name="Path 1069" d="M540.46,282.986l-22.4,8.691-2.1-10.626,23.192-5.785Z" fill="#f3978e"/>
                  <path id="Path_1070" data-name="Path 1070" d="M544.69,304.245s-10.61,14.249-10.1,13.594,8.321-23.027,8.321-23.027Z" fill="#f3978e"/>
                </g>
                <g id="Group_799" data-name="Group 799">
                  <path id="Path_1071" data-name="Path 1071" d="M559.86,285.092l-30.412,39.4a11.183,11.183,0,0,0,2.764,16.212h0a11.183,11.183,0,0,0,15.92-4.051l25.314-46.7Z" fill="#ffb1a5"/>
                  <g id="Group_797" data-name="Group 797">
                    <path id="Path_1072" data-name="Path 1072" d="M567.731,295.211a12.545,12.545,0,1,1,15.794-8.081A12.545,12.545,0,0,1,567.731,295.211Z" fill="#ffb1a5"/>
                    <path id="Path_1073" data-name="Path 1073" d="M580.735,275.733s3.433-3.565-2.657-6.063-13.621-1.925-18.428,9.747Z" fill="#ffb1a5"/>
                  </g>
                  <g id="Group_798" data-name="Group 798">
                    <path id="Path_1074" data-name="Path 1074" d="M587.044,250.831l12.734,5.521a1.313,1.313,0,0,1,.576,1.876L583.6,289.518a1.6,1.6,0,0,1-1.989.764l-12.734-5.521a1.313,1.313,0,0,1-.576-1.876l16.752-31.29A1.6,1.6,0,0,1,587.044,250.831Z" fill="#372f5f"/>
                    <path id="Path_1075" data-name="Path 1075" d="M585.828,250.277l12.734,5.521a1.313,1.313,0,0,1,.576,1.876l-16.752,31.29a1.6,1.6,0,0,1-1.989.764l-12.734-5.521a1.312,1.312,0,0,1-.576-1.876l16.752-31.29A1.6,1.6,0,0,1,585.828,250.277Z" fill="#261b43"/>
                    <path id="Path_1076" data-name="Path 1076" d="M584.391,253.461l11.189,4.851-13.652,25.5-11.189-4.851Z" fill="#e6e6e6"/>
                    <path id="Path_1077" data-name="Path 1077" d="M595.58,258.312l-24.841,20.65,13.652-25.5Z" fill="#fff"/>
                  </g>
                  <path id="Path_1078" data-name="Path 1078" d="M574.421,268.631a20.316,20.316,0,0,1,5.395,2,2.881,2.881,0,0,1,1.392,3.2h0a2.861,2.861,0,0,1-2.418,2.147l-6.62.835s-3.454,5.953-7.967,6.622l4.14-10.453Z" fill="#ffb1a5"/>
                </g>
              </g>
              <g id="Group_802" data-name="Group 802">
                <g id="Group_801" data-name="Group 801">
                  <path id="Path_1079" data-name="Path 1079" d="M489.877,219.721c-.731,0,46.946,6.6,54.813,60.954l-24.74,3.791L514.962,325.5H445.946l-13.7-75.82s15.291-21.914,43.682-29.961Z" fill="#ed5656"/>
                  <line id="Line_10" data-name="Line 10" y1="23.734" x2="2.147" transform="translate(519.951 260.732)" fill="none" stroke="#282828" stroke-linecap="round" stroke-linejoin="round" stroke-width="1.233"/>
                </g>
              </g>
            </g>
            <g id="Group_813" data-name="Group 813">
              <path id="Path_1080" data-name="Path 1080" d="M494.408,220.5V201.617H472.282v19.1a42.973,42.973,0,0,0-5.944,2.411L483.6,233.41l17.642-10.28A28.784,28.784,0,0,0,494.408,220.5Z" fill="#ffb1a5"/>
              <path id="Path_1081" data-name="Path 1081" d="M472.077,203.924s3.974,10.551,14.581,9.64c9.75-.837,8.2-15.46,8.2-15.46Z" fill="#ef9f93"/>
              <g id="Group_806" data-name="Group 806">
                <path id="Path_1082" data-name="Path 1082" d="M462.427,189.891c-3.468,3.146-11.223-8.786-7.872-12.136s5.907,1.906,5.907,1.906l1.5,3.561,1.128,4.824.269,1.264Z" fill="#f3978e"/>
                <g id="Group_805" data-name="Group 805">
                  <g id="Group_804" data-name="Group 804">
                    <path id="Path_1083" data-name="Path 1083" d="M456.175,181.982s2.625-1.181,4.957,2.625" fill="none" stroke="#282828" stroke-linecap="round" stroke-linejoin="round" stroke-width="0.993"/>
                  </g>
                </g>
              </g>
              <g id="Group_809" data-name="Group 809">
                <path id="Path_1084" data-name="Path 1084" d="M503.441,189.529c3.189,3.428,11.925-7.805,8.87-11.426s-6.048,1.4-6.048,1.4l-1.791,3.422-1.533,4.711-.374,1.236Z" fill="#f3978e"/>
                <g id="Group_808" data-name="Group 808">
                  <g id="Group_807" data-name="Group 807">
                    <path id="Path_1085" data-name="Path 1085" d="M510.34,182.177s-2.516-1.4-5.162,2.2" fill="none" stroke="#282828" stroke-linecap="round" stroke-linejoin="round" stroke-width="0.993"/>
                  </g>
                </g>
              </g>
              <g id="Group_810" data-name="Group 810">
                <path id="Path_1086" data-name="Path 1086" d="M456.344,166.374c0,15.794,12.042,23.283,26.9,23.283s26.9-7.489,26.9-23.283-12.042-26.54-26.9-26.54S456.344,150.579,456.344,166.374Z" fill="#282828"/>
              </g>
              <path id="Path_1087" data-name="Path 1087" d="M460,167.472a107.979,107.979,0,0,0,2.738,24c1.339,5.814,5.106,9.877,10.43,13.147l.97.6a18.3,18.3,0,0,0,18.632.206h0c5.768-3.363,9.808-7.8,11.05-14.036a157.841,157.841,0,0,0,2.508-23.915s2.151-24.476-22.833-24S460,167.472,460,167.472Z" fill="#ffb1a5"/>
              <g id="Group_812" data-name="Group 812">
                <path id="Path_1088" data-name="Path 1088" d="M481.648,181.441v3.387a1.541,1.541,0,0,0,.109.569,1.51,1.51,0,0,0,1.8.832l1.554-.412" fill="none" stroke="#282828" stroke-linecap="round" stroke-linejoin="round" stroke-width="1.232"/>
                <path id="Path_1089" data-name="Path 1089" d="M477.675,168.306l-12.416,2.911s.564-3.16,5.644-4.309S477.675,168.306,477.675,168.306Z" fill="#282828"/>
                <path id="Path_1090" data-name="Path 1090" d="M488.7,168.306l11.99,2.911s-.545-3.16-5.45-4.309S488.7,168.306,488.7,168.306Z" fill="#282828"/>
                <ellipse id="Ellipse_102" data-name="Ellipse 102" cx="2.094" cy="2.088" rx="2.094" ry="2.088" transform="translate(470.864 175.339)" fill="#282828"/>
                <path id="Path_1091" data-name="Path 1091" d="M494.9,177.428a2.094,2.094,0,1,1-2.094-2.089A2.091,2.091,0,0,1,494.9,177.428Z" fill="#282828"/>
                <path id="Path_1092" data-name="Path 1092" d="M475.052,190.172H491.2S484.043,198.878,475.052,190.172Z" fill="#fff"/>
                <g id="Group_811" data-name="Group 811">
                  <circle id="Ellipse_103" data-name="Ellipse 103" cx="8.905" cy="8.905" r="8.905" transform="translate(459.484 178.239) rotate(-45)" fill="none" stroke="#c98bd2" stroke-miterlimit="10" stroke-width="1.342"/>
                  <circle id="Ellipse_104" data-name="Ellipse 104" cx="8.905" cy="8.905" r="8.905" transform="translate(481.359 178.239) rotate(-45)" fill="none" stroke="#c98bd2" stroke-miterlimit="10" stroke-width="1.342"/>
                  <path id="Path_1093" data-name="Path 1093" d="M480.982,178.239s2.109-1.968,4.066,0" fill="none" stroke="#c98bd2" stroke-miterlimit="10" stroke-width="1.342"/>
                  <line id="Line_11" data-name="Line 11" x1="2.805" y1="0.071" transform="translate(460.367 178.168)" fill="none" stroke="#c98bd2" stroke-miterlimit="10" stroke-width="1.342"/>
                  <line id="Line_12" data-name="Line 12" y1="0.071" x2="2.822" transform="translate(502.858 178.168)" fill="none" stroke="#c98bd2" stroke-miterlimit="10" stroke-width="1.342"/>
                </g>
              </g>
              <path id="Path_1094" data-name="Path 1094" d="M506.007,175.587s-9.989-13.5-7.685-27.185a19.682,19.682,0,0,1,9.345,13.361C509.6,171.394,506.007,175.587,506.007,175.587Z" fill="#282828"/>
              <path id="Path_1095" data-name="Path 1095" d="M459.983,176.5s11.6-15.338,9.3-29.019a22.847,22.847,0,0,0-9.979,14.28C457.373,171.394,459.983,176.5,459.983,176.5Z" fill="#282828"/>
              <path id="Path_1096" data-name="Path 1096" d="M505.169,153.79s-12.827,14.042-47.92,11.638c0,0,5.374-20.6,22.381-22.8C479.63,142.628,499.267,140.283,505.169,153.79Z" fill="#282828"/>
              <circle id="Ellipse_105" data-name="Ellipse 105" cx="16.756" cy="16.756" r="16.756" transform="translate(485.057 151.246) rotate(-80.831)" fill="#282828"/>
            </g>
          </g>
          <g id="Group_828" data-name="Group 828">
            <path id="Path_1097" data-name="Path 1097" d="M299.725,322.544l-31.209-4.156.285-3.625-36.5,4.861s-19.922,53.389-2.193,164.385h25.387l8.849-112.549h3.245l9.137,112.549h25.387C319.841,373.013,299.725,322.544,299.725,322.544Z" fill="#282828"/>
            <g id="Group_823" data-name="Group 823">
              <path id="Path_1098" data-name="Path 1098" d="M297.235,170.7a57.553,57.553,0,0,1-10.48-18.9c-3.085-8.733-13.189-5.183-13.189-5.183s-8.419-10.831-21.088-7.059-17.071,12.788-17.329,23.506-8.689,12.395-15.181,24.794c-11.46,21.89,7.835,40.328,42.959,35.213l.048-.341a36.855,36.855,0,0,0,12.872,1.2C318.043,221.426,313.971,190.389,297.235,170.7Z" fill="#282828"/>
              <g id="Group_817" data-name="Group 817">
                <path id="Path_1099" data-name="Path 1099" d="M283.421,186.933c3.468,3.145,11.223-8.786,7.872-12.136s-5.908,1.906-5.908,1.906l-1.5,3.561-1.128,4.824-.269,1.263Z" fill="#f3978e"/>
                <g id="Group_816" data-name="Group 816">
                  <g id="Group_815" data-name="Group 815">
                    <path id="Path_1100" data-name="Path 1100" d="M289.673,179.024s-2.625-1.181-4.957,2.624" fill="none" stroke="#282828" stroke-linecap="round" stroke-linejoin="round" stroke-width="0.993"/>
                  </g>
                </g>
              </g>
              <g id="Group_820" data-name="Group 820">
                <path id="Path_1101" data-name="Path 1101" d="M242.407,186.571c-3.189,3.427-11.925-7.8-8.87-11.427s6.048,1.4,6.048,1.4l1.791,3.422,1.533,4.711.374,1.236Z" fill="#f3978e"/>
                <g id="Group_819" data-name="Group 819">
                  <g id="Group_818" data-name="Group 818">
                    <path id="Path_1102" data-name="Path 1102" d="M235.508,179.219s2.516-1.4,5.162,2.2" fill="none" stroke="#282828" stroke-linecap="round" stroke-linejoin="round" stroke-width="0.993"/>
                  </g>
                </g>
              </g>
              <g id="Group_821" data-name="Group 821">
                <path id="Path_1103" data-name="Path 1103" d="M289.5,163.415c0,15.794-12.041,23.284-26.9,23.284s-26.9-7.49-26.9-23.284,12.042-26.539,26.9-26.539S289.5,147.621,289.5,163.415Z" fill="#282828"/>
              </g>
              <rect id="Rectangle_324" data-name="Rectangle 324" width="22.126" height="28.651" transform="translate(251.44 198.659)" fill="#ffb1a5"/>
              <path id="Path_1104" data-name="Path 1104" d="M248.211,196.872s6.159,12.292,13.736,14.211a10.664,10.664,0,0,0,6.138-.355c2.852-1.011,6.469-5.262,7.083-9.967l.286-2.688S261.971,205.414,248.211,196.872Z" fill="#ef9f93"/>
              <path id="Path_1105" data-name="Path 1105" d="M285.848,164.514a107.961,107.961,0,0,1-2.738,24c-1.339,5.814-5.106,9.877-10.43,13.148l-.97.6a18.3,18.3,0,0,1-18.632.207h0c-5.769-3.363-9.808-7.8-11.051-14.036a157.915,157.915,0,0,1-2.507-23.915s-2.151-24.477,22.833-24S285.848,164.514,285.848,164.514Z" fill="#ffb1a5"/>
              <g id="Group_822" data-name="Group 822">
                <path id="Path_1106" data-name="Path 1106" d="M260.938,179.808v2.012a1.535,1.535,0,0,0,.109.568,1.511,1.511,0,0,0,1.8.829l1.554-.411" fill="none" stroke="#282828" stroke-linecap="round" stroke-linejoin="round" stroke-width="1.23"/>
                <path id="Path_1107" data-name="Path 1107" d="M266.144,166.54l13.292,3.146s-.6-3.416-6.042-4.657S266.144,166.54,266.144,166.54Z" fill="#282828"/>
                <path id="Path_1108" data-name="Path 1108" d="M259.165,166.54,245.7,169.686s.612-3.416,6.119-4.657S259.165,166.54,259.165,166.54Z" fill="#282828"/>
                <path id="Path_1109" data-name="Path 1109" d="M254.342,174.79a2.094,2.094,0,1,1-2.094-2.082A2.088,2.088,0,0,1,254.342,174.79Z" fill="#282828"/>
                <path id="Path_1110" data-name="Path 1110" d="M274.194,174.79a2.094,2.094,0,1,1-2.094-2.082A2.088,2.088,0,0,1,274.194,174.79Z" fill="#282828"/>
                <path id="Path_1111" data-name="Path 1111" d="M252.959,186.7h18.379s-1.3,5.05-9.631,5.05A9.748,9.748,0,0,1,252.959,186.7Z" fill="#fff"/>
              </g>
              <path id="Path_1112" data-name="Path 1112" d="M239.841,172.629s9.989-13.505,7.685-27.186a19.685,19.685,0,0,0-9.345,13.362C236.25,168.435,239.841,172.629,239.841,172.629Z" fill="#282828"/>
              <path id="Path_1113" data-name="Path 1113" d="M285.865,172.179s-11.6-13.973-9.3-27.654a22.848,22.848,0,0,1,9.979,14.28C288.475,168.435,285.865,172.179,285.865,172.179Z" fill="#282828"/>
              <path id="Path_1114" data-name="Path 1114" d="M240.679,150.832s11.462,15.406,46.555,13c0,0-4.009-21.97-21.016-24.164C266.218,139.67,246.581,137.325,240.679,150.832Z" fill="#282828"/>
            </g>
            <g id="Group_827" data-name="Group 827">
              <g id="Group_825" data-name="Group 825">
                <g id="Group_824" data-name="Group 824">
                  <path id="Path_1115" data-name="Path 1115" d="M208.689,390.312c-.51.8,29.208-129.305,20.385-127.338-.805.18-16.258,1.615-18.554,6.284-6.658,13.537-11.433,120.068-11.433,120.068Z" fill="#ffb1a5"/>
                  <path id="Path_1116" data-name="Path 1116" d="M199.087,389.326S194.3,411.55,212.4,413.98a2.544,2.544,0,0,0,2.739-1.682l.052-.151A2.542,2.542,0,0,0,213.787,409c-2.952-1.32-7.531-4.656-5.259-12.23,0,0,2.617-.321,4.062,4.562a2.1,2.1,0,0,0,2.951,1.3h0a2.1,2.1,0,0,0,1.136-2.147c-.434-3.42-2.155-11.652-8.755-13.861Z" fill="#ffb1a5"/>
                </g>
                <path id="Path_1117" data-name="Path 1117" d="M205.181,300.52s17.123,24.115,17.213,23.648,5.988-33.855,5.988-33.855l-20.778-9Z" fill="#f3978e"/>
              </g>
              <g id="Group_826" data-name="Group 826">
                <path id="Path_1118" data-name="Path 1118" d="M252.757,222.593c.731,0-42.318.767-50.185,55.124l24.74,3.79,4.988,41.037h69.016l13.7-75.82s-9.741-16.427-38.133-24.475Z" fill="#005c85"/>
                <path id="Path_1119" data-name="Path 1119" d="M231.716,229.164s6.084,8.076,31.011,8.076c24.7,0,31.01-8.5,31.01-8.5s-14.558-8.134-31.451-10.765A111.91,111.91,0,0,0,231.716,229.164Z" fill="#ffb1a5"/>
              </g>
            </g>
          </g>
          <g id="Group_851" data-name="Group 851">
            <g id="Group_830" data-name="Group 830">
              <g id="Group_829" data-name="Group 829">
                <path id="Path_1120" data-name="Path 1120" d="M316.414,401.367l.06,108.405H370.1l4.121-108.405Z" fill="#005683"/>
                <path id="Path_1121" data-name="Path 1121" d="M432.856,401.367l-.06,108.405H379.168l-4.121-108.405Z" fill="#005683"/>
                <rect id="Rectangle_325" data-name="Rectangle 325" width="55.449" height="37.662" transform="translate(348.117 401.367)" fill="#005683"/>
              </g>
              <line id="Line_13" data-name="Line 13" x2="38.245" transform="translate(355.862 439.028)" fill="none" stroke="#282828" stroke-linecap="round" stroke-linejoin="round" stroke-width="1.397"/>
            </g>
            <g id="Group_841" data-name="Group 841">
              <g id="Group_832" data-name="Group 832">
                <g id="Group_831" data-name="Group 831">
                  <path id="Path_1122" data-name="Path 1122" d="M466.735,306.763c3.325,36.734-.182,63.5.788,131.092l-32.009,1.34-4.769-126.522Z" fill="#ffb1a5"/>
                  <path id="Path_1123" data-name="Path 1123" d="M434.693,335.428s19.822-1.815,33.373-10.754l-.357-7.867-33.028,4.5Z" fill="#f3978e"/>
                </g>
                <path id="Path_1124" data-name="Path 1124" d="M402.894,222.188s62.959,15.834,74.367,95.748c0,0-30.814,13.359-61.694,7.613l6.947-26.729Z" fill="#d29c8b"/>
              </g>
              <g id="Group_839" data-name="Group 839">
                <g id="Group_836" data-name="Group 836">
                  <path id="Path_1125" data-name="Path 1125" d="M214.833,255.417l46.878,55.361-14.345,40.4s-35.63-49.537-51.64-87.825Z" fill="#ffb1a5"/>
                  <g id="Group_835" data-name="Group 835">
                    <g id="Group_834" data-name="Group 834">
                      <g id="Group_833" data-name="Group 833">
                        <path id="Path_1126" data-name="Path 1126" d="M216.374,257.415s-16.461,9.3-20.648,5.936c-7.317-5.879-13.363-27.4-13.363-27.4s30.782-11.6,30.493-11.152S216.374,257.415,216.374,257.415Z" fill="#ffb1a5"/>
                        <path id="Path_1127" data-name="Path 1127" d="M216.374,257.415c-.291-1.658,6.1-19.535,8.3-26.239a2.957,2.957,0,0,0-2.341-3.726h0a3.415,3.415,0,0,0-3.808,1.561l-7.721,13.2Z" fill="#ffb1a5"/>
                        <path id="Path_1128" data-name="Path 1128" d="M215.81,238.089l-5.3-26.374a3.32,3.32,0,0,0-3.837-2.632h0a2.859,2.859,0,0,0-2.347,3.171l2.31,19.638Z" fill="#ffb1a5"/>
                        <path id="Path_1129" data-name="Path 1129" d="M205.269,228.361l-7.2-18.833a3.3,3.3,0,0,0-4.09-2.014h0a2.847,2.847,0,0,0-1.882,3.378l5.342,21.762Z" fill="#ffb1a5"/>
                        <path id="Path_1130" data-name="Path 1130" d="M197.532,233.914l-9.108-18.505a3.621,3.621,0,0,0-4.623-1.773h0a3.154,3.154,0,0,0-1.627,4.166l7.261,17.47Z" fill="#ffb1a5"/>
                        <path id="Path_1131" data-name="Path 1131" d="M182.363,235.952l-7.147-11.337a2.56,2.56,0,0,1,1.249-3.42h0a2.925,2.925,0,0,1,3.572,1.039l9.4,13.038Z" fill="#ffb1a5"/>
                      </g>
                    </g>
                    <path id="Path_1132" data-name="Path 1132" d="M214.37,236.107s-10.733-1.126-11.836,13.178" fill="none" stroke="#282828" stroke-linecap="round" stroke-linejoin="round" stroke-width="1.532"/>
                  </g>
                </g>
                <g id="Group_838" data-name="Group 838">
                  <g id="Group_837" data-name="Group 837">
                    <path id="Path_1133" data-name="Path 1133" d="M237.859,332.282s8.817,30.513,26.386,26.456S309.2,317.156,309.2,317.156l-6.129-64.074-49.313,60.693Z" fill="#ffb1a5"/>
                    <path id="Path_1134" data-name="Path 1134" d="M269.051,294.922S285.7,320.035,299.9,328.89l9.295-11.734-35.861-27.741Z" fill="#f3978e"/>
                  </g>
                  <path id="Path_1135" data-name="Path 1135" d="M341.893,220.8s-48.88,11.017-74.928,67.826c0,0,15.738,23.714,40.969,34.254l16.892-20.694Z" fill="#d29c8b"/>
                </g>
              </g>
              <g id="Group_840" data-name="Group 840">
                <path id="Path_1136" data-name="Path 1136" d="M341.893,220.627a122.411,122.411,0,0,0-31.1,22.783l3.767,166.06H434.889l-.39-165.2s-15.167-14.843-31.6-22.079C388.932,216.042,355.467,213.665,341.893,220.627Z" fill="#d29c8b"/>
                <path id="Rectangle_326" data-name="Rectangle 326" d="M0,0H33.473a0,0,0,0,1,0,0V16.737A16.736,16.736,0,0,1,16.736,33.473h0A16.736,16.736,0,0,1,0,16.737V0A0,0,0,0,1,0,0Z" transform="translate(382.094 268.071)" fill="none" stroke="#282828" stroke-linecap="round" stroke-linejoin="round" stroke-width="1.397"/>
                <line id="Line_14" data-name="Line 14" y1="54.323" x2="1.561" transform="translate(434.693 271.843)" fill="none" stroke="#282828" stroke-linecap="round" stroke-linejoin="round" stroke-width="1.397"/>
                <line id="Line_15" data-name="Line 15" x1="2.6" y1="47.089" transform="translate(310.044 270.023)" fill="none" stroke="#282828" stroke-linecap="round" stroke-linejoin="round" stroke-width="1.397"/>
              </g>
            </g>
            <g id="Group_850" data-name="Group 850">
              <path id="Path_1137" data-name="Path 1137" d="M343.3,159.974l-5.016-24.815c-.282-2.021-1.066-5.14-.106-8.071,1.589-4.849,7.428-14.161,17.407-9.9l2.158,9.824s-10.364,2.092-14.522,15.65Z" fill="#282828"/>
              <path id="Path_1138" data-name="Path 1138" d="M354.853,122.313c-.181,3.26-3.059,17.526-13.177,22.724C341.676,145.037,332.814,126.031,354.853,122.313Z" fill="#282828"/>
              <path id="Path_1139" data-name="Path 1139" d="M390.346,216.058h0V173.921H351.5v42.137l-11.563,5.271s2.712,17.464,31.393,17.851,31.562-16.992,31.562-16.992Z" fill="#ffb1a5"/>
              <path id="Path_1140" data-name="Path 1140" d="M355.588,117.191s7.129-18.807,29.112-8.809c13.3,6.051,17.032,14.165,18.618,19.913a23.127,23.127,0,0,1,.593,6.706l-5.317,24.973-20.76-34.552-20.088,1.593Z" fill="#282828"/>
              <g id="Group_844" data-name="Group 844">
                <path id="Path_1141" data-name="Path 1141" d="M398.594,159.974s2.619-4.165,8.02-2.117,2.958,15.167-5.144,16.838a6.408,6.408,0,0,1-5.182-1.355S398.28,163.651,398.594,159.974Z" fill="#f3978e"/>
                <g id="Group_843" data-name="Group 843">
                  <g id="Group_842" data-name="Group 842">
                    <path id="Path_1142" data-name="Path 1142" d="M405.543,162.485s-4.525-1.51-7.736,5.153" fill="none" stroke="#282828" stroke-linecap="round" stroke-linejoin="round" stroke-width="1.397"/>
                  </g>
                </g>
              </g>
              <g id="Group_847" data-name="Group 847">
                <path id="Path_1143" data-name="Path 1143" d="M343.3,159.974s-2.619-4.165-8.02-2.117-2.958,15.167,5.144,16.838a6.409,6.409,0,0,0,5.182-1.355S343.616,163.651,343.3,159.974Z" fill="#f3978e"/>
                <g id="Group_846" data-name="Group 846">
                  <g id="Group_845" data-name="Group 845">
                    <path id="Path_1144" data-name="Path 1144" d="M336.354,162.485s4.525-1.51,7.736,5.153" fill="none" stroke="#282828" stroke-linecap="round" stroke-linejoin="round" stroke-width="1.397"/>
                  </g>
                </g>
              </g>
              <path id="Path_1145" data-name="Path 1145" d="M399.135,147.526c0,7.908-.774,24.452-5.635,34.272-4.565,9.22-12.114,14.182-22.012,14.477s-17.27-3.519-23.179-15.485-5.627-33.117-5.627-33.117,0-28.249,27.92-28.249C400.008,119.424,399.135,147.526,399.135,147.526Z" fill="#ffb1a5"/>
              <path id="Path_1146" data-name="Path 1146" d="M351.794,186.688s3.253,16.5,17.617,18.4c16.532,2.183,20.935-17.982,20.935-17.982s-7.305,9.154-18.858,9.168A25.277,25.277,0,0,1,351.794,186.688Z" fill="#ef9f93"/>
              <g id="Group_849" data-name="Group 849">
                <path id="Path_1147" data-name="Path 1147" d="M368.917,159.254v6.538a2.138,2.138,0,0,0,.153.8,2.1,2.1,0,0,0,2.509,1.164l2.168-.577" fill="none" stroke="#282828" stroke-linecap="round" stroke-linejoin="round" stroke-width="1.397"/>
                <path id="Path_1148" data-name="Path 1148" d="M360.672,156.132a2.542,2.542,0,1,1-2.542-2.542A2.542,2.542,0,0,1,360.672,156.132Z" fill="#282828"/>
                <path id="Path_1149" data-name="Path 1149" d="M384.5,156.132a2.542,2.542,0,1,1-2.541-2.542A2.541,2.541,0,0,1,384.5,156.132Z" fill="#282828"/>
                <path id="Path_1150" data-name="Path 1150" d="M375.454,143.488l17.089,4.414s-.777-4.793-7.768-6.535S375.454,143.488,375.454,143.488Z" fill="#282828"/>
                <path id="Path_1151" data-name="Path 1151" d="M364.835,143.488,347.746,147.9s.777-4.793,7.768-6.535S364.835,143.488,364.835,143.488Z" fill="#282828"/>
                <path id="Path_1152" data-name="Path 1152" d="M361.436,172.379s2.521,1.932,9.151,1.932a23.172,23.172,0,0,0,9.794-1.932" fill="none" stroke="#282828" stroke-linecap="round" stroke-linejoin="round" stroke-width="1.397"/>
                <g id="Group_848" data-name="Group 848">
                  <circle id="Ellipse_106" data-name="Ellipse 106" cx="10.8" cy="10.8" r="10.8" transform="translate(346.646 146.074)" fill="none" stroke="#fff" stroke-miterlimit="10" stroke-width="1.951"/>
                  <circle id="Ellipse_107" data-name="Ellipse 107" cx="10.8" cy="10.8" r="10.8" transform="translate(373.178 146.074)" fill="none" stroke="#fff" stroke-miterlimit="10" stroke-width="1.951"/>
                  <path id="Path_1153" data-name="Path 1153" d="M368.246,156.875s2.558-2.388,4.932,0" fill="none" stroke="#fff" stroke-miterlimit="10" stroke-width="1.951"/>
                  <line id="Line_16" data-name="Line 16" x1="3.621" y1="0.092" transform="translate(343.024 156.783)" fill="none" stroke="#fff" stroke-miterlimit="10" stroke-width="1.951"/>
                  <line id="Line_17" data-name="Line 17" y1="0.066" x2="4.043" transform="translate(394.779 156.809)" fill="none" stroke="#fff" stroke-miterlimit="10" stroke-width="1.951"/>
                </g>
              </g>
              <path id="Path_1154" data-name="Path 1154" d="M351.794,122.958s5.187,14.735,28.591,14.283c15.9-.307,19.7,11.2,19.7,11.2s-2.768-25.727-3.5-25.484-24.2-6.263-24.2-6.263Z" fill="#282828"/>
            </g>
          </g>
        </g>
      </g>
    </g>
  </g>
</svg>
