<?xml version="1.0" encoding="utf-8"?>
<!-- Generator: Adobe Illustrator 17.0.0, SVG Export Plug-In . SVG Version: 6.00 Build 0)  -->
<!DOCTYPE svg PUBLIC "-//W3C//DTD SVG 1.1//EN" "http://www.w3.org/Graphics/SVG/1.1/DTD/svg11.dtd">
<svg version="1.1" xmlns="http://www.w3.org/2000/svg" xmlns:xlink="http://www.w3.org/1999/xlink" x="0px" y="0px" width="351px"
	 height="111px" viewBox="0 0 351 111" enable-background="new 0 0 351 111" xml:space="preserve">
<g id="Hypotec_Logo">
	<rect x="0" y="93.581" fill="#0193D7" width="15.097" height="15.112"/>
	<rect x="45.313" y="93.581" fill="#0193D7" width="15.097" height="15.112"/>
	<rect x="45.313" y="61.903" fill="#0193D7" width="15.097" height="15.112"/>
	<rect x="0" y="1.5" fill="#0193D7" width="15.097" height="75.515"/>
	<rect x="15.097" y="31.701" fill="#0193D7" width="15.097" height="15.112"/>
	<rect x="45.313" y="1.5" fill="#0193D7" width="15.097" height="15.112"/>
	<rect x="45.313" y="16.612" fill="#48B2E8" width="15.097" height="15.089"/>
	<rect x="30.194" y="31.701" fill="#48B2E8" width="15.12" height="15.112"/>
	<rect x="45.313" y="46.813" fill="#48B2E8" width="15.097" height="15.089"/>
	<rect x="45.313" y="31.701" fill="#7ECBEF" width="15.097" height="15.112"/>
	<g>
		<g>
			<path fill="#393939" d="M72.323,24.955L90.54,53.824l18.364-28.868h4.114L92.45,57.423v19.686h-3.746V57.276L68.21,24.955H72.323
				z"/>
			<path fill="#393939" d="M120.657,77.109V24.955h21.449c2.204,0,4.235,0.466,6.097,1.396c1.86,0.931,3.464,2.167,4.811,3.71
				c1.346,1.543,2.399,3.282,3.159,5.215c0.759,1.935,1.139,3.882,1.139,5.84c0,2.106-0.356,4.139-1.065,6.097
				c-0.711,1.959-1.715,3.698-3.012,5.215c-1.298,1.518-2.841,2.73-4.628,3.636c-1.788,0.907-3.783,1.359-5.987,1.359h-18.217
				v19.686H120.657z M124.403,53.971H142.4c1.714,0,3.256-0.355,4.628-1.065c1.37-0.709,2.534-1.664,3.489-2.865
				c0.955-1.199,1.689-2.571,2.203-4.113c0.514-1.543,0.771-3.146,0.771-4.811c0-1.713-0.306-3.342-0.918-4.885
				c-0.613-1.543-1.445-2.902-2.498-4.077c-1.054-1.175-2.277-2.105-3.673-2.791c-1.396-0.685-2.877-1.028-4.444-1.028h-17.556
				V53.971z"/>
			<path fill="#393939" d="M187.355,77.477c-3.625,0-6.93-0.759-9.917-2.277c-2.988-1.517-5.559-3.501-7.713-5.95
				c-2.155-2.448-3.82-5.264-4.995-8.447c-1.175-3.183-1.763-6.439-1.763-9.77c0-3.476,0.624-6.806,1.873-9.99
				c1.249-3.183,2.962-5.998,5.142-8.447c2.178-2.448,4.762-4.395,7.749-5.84c2.987-1.444,6.219-2.167,9.696-2.167
				c3.623,0,6.929,0.771,9.917,2.314c2.987,1.543,5.546,3.563,7.676,6.06c2.13,2.498,3.783,5.326,4.958,8.484
				c1.175,3.158,1.763,6.354,1.763,9.586c0,3.526-0.624,6.881-1.873,10.064c-1.249,3.184-2.964,5.987-5.142,8.411
				c-2.18,2.424-4.751,4.359-7.713,5.803C194.051,76.755,190.832,77.477,187.355,77.477z M166.714,51.032
				c0,2.988,0.502,5.865,1.506,8.631c1.003,2.767,2.424,5.215,4.26,7.346c1.837,2.13,4.015,3.832,6.538,5.105
				c2.521,1.274,5.3,1.91,8.337,1.91c3.133,0,5.961-0.661,8.484-1.983c2.522-1.322,4.689-3.073,6.501-5.252
				c1.811-2.179,3.207-4.639,4.187-7.382c0.979-2.742,1.469-5.533,1.469-8.374c0-2.986-0.514-5.864-1.543-8.631
				c-1.028-2.766-2.461-5.215-4.297-7.346c-1.837-2.13-4.016-3.831-6.538-5.105c-2.523-1.273-5.277-1.91-8.264-1.91
				c-3.135,0-5.975,0.661-8.521,1.983c-2.547,1.322-4.714,3.074-6.501,5.252c-1.788,2.18-3.171,4.64-4.15,7.382
				C167.203,45.401,166.714,48.193,166.714,51.032z"/>
			<path fill="#393939" d="M256.038,28.334h-19.098v48.775h-3.747V28.334h-19.098v-3.379h41.944V28.334z"/>
			<path fill="#393939" d="M299.229,73.73v3.379h-34.744V24.955h34.083v3.379h-30.337v20.494h26.517v3.232h-26.517v21.67H299.229z"
				/>
			<path fill="#393939" d="M306.207,50.665c0-3.134,0.551-6.255,1.653-9.366c1.102-3.109,2.706-5.888,4.811-8.337
				c2.105-2.448,4.689-4.444,7.75-5.987c3.06-1.543,6.549-2.314,10.468-2.314c4.652,0,8.619,1.065,11.9,3.195
				c3.28,2.13,5.705,4.861,7.272,8.19l-3.085,1.763c-0.882-1.811-1.947-3.33-3.196-4.554c-1.249-1.223-2.596-2.215-4.04-2.975
				c-1.445-0.759-2.951-1.31-4.517-1.653c-1.568-0.342-3.11-0.514-4.628-0.514c-3.331,0-6.269,0.674-8.815,2.02
				c-2.547,1.348-4.701,3.098-6.464,5.252c-1.763,2.155-3.098,4.591-4.004,7.309c-0.907,2.718-1.359,5.448-1.359,8.19
				c0,3.085,0.538,6.023,1.616,8.815c1.077,2.791,2.546,5.252,4.408,7.382c1.86,2.13,4.064,3.832,6.611,5.105
				c2.546,1.274,5.289,1.909,8.227,1.909c1.567,0,3.17-0.195,4.811-0.588c1.64-0.391,3.232-1.003,4.775-1.836
				c1.543-0.832,2.975-1.897,4.297-3.195c1.322-1.297,2.424-2.828,3.306-4.591l3.159,1.543c-0.881,1.959-2.069,3.698-3.562,5.215
				c-1.495,1.518-3.171,2.791-5.032,3.819c-1.862,1.029-3.832,1.8-5.913,2.314c-2.082,0.514-4.126,0.771-6.134,0.771
				c-3.575,0-6.844-0.783-9.807-2.351c-2.963-1.566-5.521-3.611-7.676-6.134c-2.156-2.522-3.832-5.386-5.032-8.594
				C306.806,57.265,306.207,53.996,306.207,50.665z"/>
		</g>
	</g>
</g>
<g id="Pantone">
	<g>
		<path fill="#393939" d="M104.979,102.033l-1.152,4.152h-3.792l4.944-16.178h4.8l5.017,16.178h-3.937l-1.248-4.152H104.979z
			 M109.083,99.297l-1.008-3.433c-0.288-0.96-0.576-2.16-0.816-3.12h-0.048c-0.24,0.96-0.48,2.185-0.744,3.12l-0.96,3.433H109.083z"
			/>
		<path fill="#393939" d="M121.683,98.192c0-1.464-0.048-2.712-0.096-3.744h3.168l0.168,1.608h0.072
			c0.48-0.744,1.68-1.872,3.625-1.872c2.4,0,4.2,1.584,4.2,5.04v6.961h-3.648v-6.505c0-1.512-0.528-2.544-1.848-2.544
			c-1.008,0-1.608,0.696-1.848,1.368c-0.096,0.216-0.144,0.576-0.144,0.912v6.769h-3.648V98.192z"/>
		<path fill="#393939" d="M138.555,101.481c0.12,1.512,1.608,2.231,3.312,2.231c1.248,0,2.256-0.168,3.24-0.479l0.48,2.472
			c-1.2,0.48-2.665,0.721-4.249,0.721c-3.984,0-6.265-2.305-6.265-5.977c0-2.977,1.848-6.265,5.929-6.265
			c3.792,0,5.232,2.952,5.232,5.856c0,0.624-0.072,1.176-0.12,1.44H138.555z M142.851,98.985c0-0.889-0.384-2.377-2.064-2.377
			c-1.536,0-2.16,1.393-2.256,2.377H142.851z"/>
		<path fill="#393939" d="M150.794,94.448l0.936,4.801c0.24,1.224,0.48,2.521,0.672,3.864h0.048c0.24-1.344,0.576-2.688,0.864-3.84
			l1.248-4.825h2.88l1.176,4.681c0.312,1.32,0.624,2.641,0.864,3.984h0.048c0.168-1.344,0.408-2.664,0.672-4.009l1.008-4.656h3.576
			l-3.6,11.737h-3.433l-1.104-4.128c-0.288-1.152-0.504-2.209-0.744-3.648h-0.048c-0.216,1.464-0.456,2.544-0.768,3.648
			l-1.176,4.128h-3.432l-3.408-11.737H150.794z"/>
		<path fill="#393939" d="M173.858,94.448l0.936,4.801c0.24,1.224,0.48,2.521,0.672,3.864h0.048c0.24-1.344,0.576-2.688,0.864-3.84
			l1.248-4.825h2.88l1.176,4.681c0.312,1.32,0.624,2.641,0.864,3.984h0.048c0.168-1.344,0.408-2.664,0.672-4.009l1.008-4.656h3.576
			l-3.6,11.737h-3.433l-1.104-4.128c-0.288-1.152-0.504-2.209-0.744-3.648h-0.048c-0.216,1.464-0.456,2.544-0.768,3.648
			l-1.176,4.128h-3.432l-3.408-11.737H173.858z"/>
		<path fill="#393939" d="M196.059,106.186l-0.216-1.176h-0.072c-0.768,0.936-1.968,1.439-3.36,1.439
			c-2.376,0-3.792-1.728-3.792-3.6c0-3.049,2.736-4.513,6.888-4.488v-0.169c0-0.624-0.336-1.512-2.136-1.512
			c-1.2,0-2.472,0.408-3.24,0.888l-0.672-2.352c0.816-0.456,2.424-1.032,4.561-1.032c3.912,0,5.16,2.304,5.16,5.064v4.08
			c0,1.128,0.048,2.208,0.168,2.856H196.059z M195.626,100.641c-1.92-0.023-3.408,0.433-3.408,1.849c0,0.937,0.624,1.392,1.44,1.392
			c0.912,0,1.656-0.6,1.896-1.344c0.048-0.191,0.072-0.408,0.072-0.624V100.641z"/>
		<path fill="#393939" d="M204.506,94.448l1.752,5.761c0.192,0.696,0.432,1.561,0.576,2.185h0.072
			c0.168-0.624,0.36-1.513,0.528-2.185l1.44-5.761h3.912l-2.736,7.729c-1.68,4.657-2.808,6.529-4.128,7.705
			c-1.272,1.104-2.616,1.488-3.528,1.608l-0.768-3.097c0.456-0.072,1.032-0.288,1.584-0.624c0.552-0.288,1.152-0.864,1.512-1.464
			c0.12-0.168,0.192-0.36,0.192-0.528c0-0.12-0.024-0.312-0.168-0.6l-4.296-10.729H204.506z"/>
		<path fill="#393939" d="M230.211,100.281c0,4.296-2.977,6.168-5.785,6.168c-3.144,0-5.568-2.304-5.568-5.977
			c0-3.888,2.544-6.168,5.76-6.168C227.955,94.305,230.211,96.729,230.211,100.281z M220.994,100.401
			c0,2.544,1.464,4.464,3.528,4.464c2.016,0,3.528-1.896,3.528-4.512c0-1.969-0.984-4.465-3.48-4.465
			S220.994,98.192,220.994,100.401z"/>
		<path fill="#393939" d="M233.09,106.186V96.177h-1.632v-1.608h1.632v-0.552c0-1.632,0.36-3.12,1.344-4.057
			c0.792-0.768,1.848-1.08,2.832-1.08c0.744,0,1.392,0.168,1.8,0.336l-0.288,1.633c-0.312-0.145-0.744-0.265-1.344-0.265
			c-1.8,0-2.256,1.584-2.256,3.36v0.624h2.809v1.608h-2.809v10.009H233.09z"/>
		<path fill="#393939" d="M244.969,89.145h2.112v17.041h-2.112V89.145z"/>
		<path fill="#393939" d="M251.809,100.761c0.048,2.856,1.872,4.032,3.984,4.032c1.512,0,2.424-0.264,3.216-0.6l0.36,1.512
			c-0.744,0.337-2.016,0.721-3.864,0.721c-3.576,0-5.712-2.353-5.712-5.856c0-3.505,2.064-6.265,5.448-6.265
			c3.792,0,4.801,3.336,4.801,5.473c0,0.432-0.048,0.768-0.072,0.983H251.809z M258.001,99.249c0.024-1.344-0.552-3.433-2.928-3.433
			c-2.136,0-3.072,1.969-3.24,3.433H258.001z"/>
		<path fill="#393939" d="M262.657,97.713c0-1.2-0.024-2.185-0.096-3.145h1.872l0.12,1.92h0.048c0.576-1.104,1.92-2.184,3.84-2.184
			c1.608,0,4.104,0.96,4.104,4.944v6.937h-2.112v-6.696c0-1.872-0.696-3.433-2.688-3.433c-1.393,0-2.473,0.984-2.833,2.16
			c-0.096,0.264-0.144,0.624-0.144,0.984v6.984h-2.112V97.713z"/>
		<path fill="#393939" d="M286.01,89.145v14.041c0,1.032,0.024,2.208,0.096,3h-1.896l-0.096-2.017h-0.048
			c-0.648,1.297-2.064,2.28-3.96,2.28c-2.808,0-4.968-2.376-4.968-5.904c-0.024-3.864,2.376-6.24,5.208-6.24
			c1.776,0,2.976,0.84,3.504,1.776h0.048v-6.937H286.01z M283.897,99.297c0-0.264-0.024-0.624-0.096-0.888
			c-0.312-1.345-1.464-2.448-3.048-2.448c-2.185,0-3.48,1.92-3.48,4.488c0,2.352,1.152,4.296,3.432,4.296
			c1.416,0,2.712-0.936,3.096-2.52c0.072-0.288,0.096-0.576,0.096-0.912V99.297z"/>
		<path fill="#393939" d="M291.865,91.305c0.024,0.72-0.504,1.296-1.344,1.296c-0.744,0-1.272-0.576-1.272-1.296
			c0-0.744,0.552-1.32,1.32-1.32C291.36,89.984,291.865,90.561,291.865,91.305z M289.512,106.186V94.568h2.112v11.617H289.512z"/>
		<path fill="#393939" d="M295.128,97.713c0-1.2-0.024-2.185-0.096-3.145h1.872l0.12,1.92h0.048c0.576-1.104,1.92-2.184,3.84-2.184
			c1.608,0,4.104,0.96,4.104,4.944v6.937h-2.112v-6.696c0-1.872-0.696-3.433-2.688-3.433c-1.393,0-2.473,0.984-2.833,2.16
			c-0.096,0.264-0.144,0.624-0.144,0.984v6.984h-2.112V97.713z"/>
		<path fill="#393939" d="M318.457,94.568c-0.048,0.84-0.096,1.776-0.096,3.192v6.745c0,2.664-0.528,4.296-1.656,5.304
			c-1.128,1.057-2.76,1.393-4.224,1.393c-1.392,0-2.928-0.336-3.865-0.96l0.528-1.608c0.768,0.48,1.968,0.912,3.408,0.912
			c2.16,0,3.744-1.128,3.744-4.057v-1.296h-0.048c-0.648,1.08-1.896,1.944-3.696,1.944c-2.88,0-4.944-2.448-4.944-5.665
			c0-3.936,2.568-6.168,5.232-6.168c2.016,0,3.12,1.056,3.625,2.016h0.048l0.096-1.752H318.457z M316.272,99.153
			c0-0.36-0.024-0.673-0.12-0.961c-0.384-1.224-1.417-2.231-2.953-2.231c-2.016,0-3.456,1.704-3.456,4.393
			c0,2.279,1.152,4.176,3.432,4.176c1.296,0,2.472-0.816,2.928-2.16c0.12-0.36,0.168-0.768,0.168-1.128V99.153z"/>
	</g>
</g>
</svg>
