<svg id="light" enable-background="new 0 0 24 24" height="512" viewBox="0 0 24 24" width="512" xmlns="http://www.w3.org/2000/svg"><g><path d="m12 24c-6.617 0-12-5.383-12-12s5.383-12 12-12c3.131 0 6.089 1.197 8.329 3.371.198.192.202.509.01.707-.191.198-.508.203-.707.011-2.052-1.992-4.763-3.089-7.632-3.089-6.065 0-11 4.935-11 11s4.935 11 11 11 11-4.935 11-11c0-1.541-.309-3.024-.918-4.409-.111-.252.004-.548.257-.659s.547.003.659.256c.665 1.513 1.002 3.131 1.002 4.812 0 6.617-5.383 12-12 12z"/></g><g><path d="m21.429 8.036c-1.418 0-2.571-1.153-2.571-2.571 0-1.237 1.799-3.904 2.16-4.426.186-.271.637-.271.822 0 .361.521 2.16 3.189 2.16 4.425 0 1.418-1.153 2.572-2.571 2.572zm0-5.81c-.751 1.17-1.571 2.667-1.571 3.239 0 .866.705 1.571 1.571 1.571s1.571-.705 1.571-1.572c0-.572-.82-2.068-1.571-3.238z"/></g><g><path d="m17.304 19.25c-.128 0-.256-.049-.354-.146-2.73-2.729-7.17-2.729-9.9 0-.195.195-.512.195-.707 0s-.195-.512 0-.707c3.119-3.118 8.195-3.118 11.314 0 .195.195.195.512 0 .707-.097.097-.225.146-.353.146z"/></g><g><path d="m7.5 11c-1.379 0-2.5-1.122-2.5-2.5 0-.276.224-.5.5-.5s.5.224.5.5c0 .827.673 1.5 1.5 1.5s1.5-.673 1.5-1.5c0-.276.224-.5.5-.5s.5.224.5.5c0 1.378-1.121 2.5-2.5 2.5z"/></g><g><path d="m16.5 11c-1.379 0-2.5-1.122-2.5-2.5 0-.276.224-.5.5-.5s.5.224.5.5c0 .827.673 1.5 1.5 1.5s1.5-.673 1.5-1.5c0-.276.224-.5.5-.5s.5.224.5.5c0 1.378-1.121 2.5-2.5 2.5z"/></g></svg>